<mxfile host="app.diagrams.net" modified="2023-11-22T06:59:09.342Z" agent="Mozilla/5.0 (Macintosh; Intel Mac OS X 10_15_7) AppleWebKit/537.36 (KHTML, like Gecko) Chrome/119.0.0.0 Safari/537.36" version="22.1.3" etag="6GVuhsRKbp379cyxTO_G" type="github">
  <diagram name="第 1 页" id="gyupmdjK00yFcFKJQauB">
    <mxGraphModel>
      <root>
        <mxCell id="0" />
        <mxCell id="1" parent="0" />
      </root>
    </mxGraphModel>
  </diagram>
</mxfile>
